<svg width="40" height="40" viewBox="0 0 40 40" fill="none" xmlns="http://www.w3.org/2000/svg">
<path d="M0 8C0 3.58172 3.58172 0 8 0H32C36.4183 0 40 3.58172 40 8V32C40 36.4183 36.4183 40 32 40H8C3.58172 40 0 36.4183 0 32V8Z" fill="#2A4B50" fill-opacity="0.2"/>
<path d="M28 20.2741C28 20.6538 27.7178 20.9676 27.3518 21.0173L27.25 21.0241L14.066 21.0235L18.829 25.767C19.1225 26.0593 19.1235 26.5342 18.8313 26.8277C18.5656 27.0945 18.149 27.1196 17.8549 26.9024L17.7706 26.83L11.7206 20.806C11.6819 20.7675 11.6483 20.7258 11.6198 20.6817C11.6117 20.6685 11.6035 20.6549 11.5958 20.6411C11.5886 20.6292 11.5822 20.6169 11.5761 20.6045C11.5676 20.5864 11.5593 20.5677 11.5518 20.5486C11.5457 20.5338 11.5406 20.5195 11.536 20.5051C11.5304 20.4872 11.5251 20.4681 11.5204 20.4488C11.517 20.4353 11.5143 20.4223 11.5119 20.4092C11.5086 20.3898 11.5057 20.3697 11.5037 20.3493C11.502 20.3338 11.5009 20.3184 11.5003 20.303C11.5002 20.2937 11.5 20.2839 11.5 20.2741L11.5004 20.2451C11.5009 20.2303 11.502 20.2156 11.5034 20.201L11.5 20.2741C11.5 20.2268 11.5044 20.1805 11.5128 20.1356C11.5147 20.1249 11.517 20.1139 11.5196 20.1029C11.5249 20.0803 11.5311 20.0586 11.5382 20.0373C11.5416 20.0267 11.5457 20.0154 11.55 20.0041C11.5588 19.9816 11.5683 19.96 11.5788 19.9391C11.5837 19.9292 11.5891 19.9189 11.5948 19.9087C11.6042 19.892 11.6139 19.8762 11.6241 19.8608C11.6313 19.8499 11.6393 19.8385 11.6476 19.8273L11.6541 19.8187C11.6743 19.7923 11.6962 19.7673 11.7197 19.7438L11.7206 19.7431L17.7706 13.7181C18.0641 13.4258 18.5389 13.4268 18.8312 13.7203C19.0969 13.9871 19.1203 14.4038 18.9018 14.697L18.829 14.7809L14.068 19.5235L27.25 19.5241C27.6642 19.5241 28 19.8599 28 20.2741Z" fill="white"/>
</svg>
