<svg fill="none" height="20" viewBox="0 0 20 20" width="20" xmlns="http://www.w3.org/2000/svg">
    <path clip-rule="evenodd" d="M3.84319 5.57551C3.59961 6.16358 3.59961 6.90908 3.59961 8.4001V11.6001C3.59961 13.0911 3.59961 13.8366 3.84319 14.4247C4.16798 15.2088 4.79093 15.8317 5.57502 16.1565C6.16309 16.4001 6.9086 16.4001 8.39961 16.4001H11.5996C13.0906 16.4001 13.8361 16.4001 14.4242 16.1565C15.2083 15.8317 15.8312 15.2088 16.156 14.4247C16.3996 13.8366 16.3996 13.0911 16.3996 11.6001V8.4001C16.3996 6.90908 16.3996 6.16358 16.156 5.57551C15.8312 4.79142 15.2083 4.16846 14.4242 3.84368C13.8361 3.6001 13.0906 3.6001 11.5996 3.6001H8.39961C6.9086 3.6001 6.16309 3.6001 5.57502 3.84368C4.79093 4.16846 4.16798 4.79142 3.84319 5.57551ZM13.6419 8.00553C13.8658 7.76126 13.8493 7.38172 13.605 7.1578C13.3608 6.93389 12.9812 6.95039 12.7573 7.19466L8.78076 11.5327L7.22387 9.97583C6.98956 9.74152 6.60966 9.74152 6.37534 9.97583C6.14103 10.2101 6.14103 10.59 6.37534 10.8244L8.37534 12.8244C8.49106 12.9401 8.64903 13.0035 8.81264 13C8.97626 12.9964 9.13132 12.9262 9.2419 12.8055L13.6419 8.00553Z"
        fill="#1A7E5F"
        fill-rule="evenodd" />
</svg>
