<svg width="17" height="16" viewBox="0 0 17 16" fill="none" xmlns="http://www.w3.org/2000/svg">
<path fill-rule="evenodd" clip-rule="evenodd" d="M16.6857 13.9664L9.44512 1.06084C9.02543 0.313053 7.97449 0.313053 7.55479 1.06084L0.314213 13.9664C-0.105481 14.7141 0.41999 15.6515 1.25938 15.6515H15.7405C16.5799 15.6515 17.1054 14.7141 16.6857 13.9664ZM8.5102 5.03501C8.97425 5.03501 9.34959 5.43173 9.33594 5.90919L9.19945 10.8102C9.18921 11.1964 8.88212 11.5018 8.50678 11.5018C8.13145 11.5018 7.82435 11.1929 7.81412 10.8102L7.68104 5.90919C7.67081 5.43173 8.04273 5.03501 8.5102 5.03501ZM7.6401 13.0149C7.6401 13.5029 8.02567 13.8997 8.49996 13.8997C8.97425 13.8997 9.35982 13.5029 9.35982 13.0149C9.35982 12.5269 8.97425 12.1302 8.49996 12.1302C8.02567 12.1302 7.6401 12.5269 7.6401 13.0149Z" fill="#F44336"/>
</svg>
