<svg width="24" height="24" viewBox="0 0 24 24" fill="none" xmlns="http://www.w3.org/2000/svg">
<path d="M4.20185 15.4389C3.29354 14.3506 2.76462 13.1266 2.76462 12.0032C2.76462 8.97554 6.58615 5.26477 11.3031 5.26477C13.2323 5.26477 15.0231 5.88323 16.4631 6.84323" stroke="#657084" stroke-width="1.38462" stroke-linecap="round" stroke-linejoin="round"/>
<path d="M18.5493 8.74432C19.3718 9.7874 19.8509 10.9412 19.8509 12.0028C19.8509 15.0305 16.0201 18.7412 11.3032 18.7412C10.4632 18.7412 9.64256 18.6212 8.87549 18.4089" stroke="#657084" stroke-width="1.38462" stroke-linecap="round" stroke-linejoin="round"/>
<path d="M9.24103 14.0586C8.69178 13.5149 8.3844 12.7736 8.38716 12.001C8.38347 10.3903 9.68688 9.08132 11.2986 9.07855" stroke="#657084" stroke-width="1.38462" stroke-linecap="round" stroke-linejoin="round"/>
<path d="M14.174 12.5189C13.958 13.7115 13.0248 14.6466 11.8322 14.8653" stroke="#657084" stroke-width="1.38462" stroke-linecap="round" stroke-linejoin="round"/>
<path d="M18.5882 4.71973L4.02753 19.2803" stroke="#657084" stroke-width="1.38462" stroke-linecap="round" stroke-linejoin="round"/>
</svg>
