<?xml version="1.0" encoding="UTF-8"?>
<svg version="1.1" xmlns="http://www.w3.org/2000/svg" width="128" height="128">
<path d="M0 0 C2.87373485 1.66164471 4.92544861 3.81523811 7.22265625 6.203125 C8.1146875 7.12222656 9.00671875 8.04132812 9.92578125 8.98828125 C10.60125 9.69855469 11.27671875 10.40882812 11.97265625 11.140625 C16.65711087 9.21361071 19.41071296 5.62235366 22.75390625 1.94140625 C24.97265625 0.140625 24.97265625 0.140625 26.890625 0.0390625 C29.99265129 1.68028466 32.33424454 3.98946473 34.78515625 6.453125 C35.55762695 7.18305664 35.55762695 7.18305664 36.34570312 7.92773438 C39.92755433 11.49040565 39.92755433 11.49040565 40.11328125 14.16796875 C38.45163654 17.0417036 36.29804314 19.09341736 33.91015625 21.390625 C32.99105469 22.28265625 32.07195312 23.1746875 31.125 24.09375 C30.41472656 24.76921875 29.70445313 25.4446875 28.97265625 26.140625 C32.60265625 26.470625 36.23265625 26.800625 39.97265625 27.140625 C40.46765625 32.585625 40.46765625 32.585625 40.97265625 38.140625 C41.7203125 37.33496094 42.46796875 36.52929688 43.23828125 35.69921875 C44.23239823 34.65820946 45.22722721 33.61787976 46.22265625 32.578125 C46.71378906 32.04509766 47.20492187 31.51207031 47.7109375 30.96289062 C51.35874848 27.19348594 51.35874848 27.19348594 53.96875 26.96875 C56.97091885 28.7244043 59.35029867 31.00560236 61.78515625 33.453125 C62.30013672 33.93974609 62.81511719 34.42636719 63.34570312 34.92773438 C66.92755433 38.49040565 66.92755433 38.49040565 67.11328125 41.16796875 C65.45163654 44.0417036 63.29804314 46.09341736 60.91015625 48.390625 C59.53150391 49.72867188 59.53150391 49.72867188 58.125 51.09375 C57.41472656 51.76921875 56.70445313 52.4446875 55.97265625 53.140625 C57.89967054 57.82507962 61.49092759 60.57868171 65.171875 63.921875 C66.97265625 66.140625 66.97265625 66.140625 67.07421875 68.05859375 C65.43299659 71.16062004 63.12381652 73.50221329 60.66015625 75.953125 C59.93022461 76.7255957 59.93022461 76.7255957 59.18554688 77.51367188 C55.6228756 81.09552308 55.6228756 81.09552308 52.9453125 81.28125 C50.07157765 79.61960529 48.01986389 77.46601189 45.72265625 75.078125 C44.38460937 73.69947266 44.38460937 73.69947266 43.01953125 72.29296875 C42.3440625 71.58269531 41.66859375 70.87242188 40.97265625 70.140625 C40.64265625 73.770625 40.31265625 77.400625 39.97265625 81.140625 C36.34265625 81.470625 32.71265625 81.800625 28.97265625 82.140625 C29.77832031 82.88828125 30.58398438 83.6359375 31.4140625 84.40625 C32.45507179 85.40036698 33.49540149 86.39519596 34.53515625 87.390625 C35.06818359 87.88175781 35.60121094 88.37289062 36.15039062 88.87890625 C39.91979531 92.52671723 39.91979531 92.52671723 40.14453125 95.13671875 C38.38887695 98.1388876 36.10767889 100.51826742 33.66015625 102.953125 C32.93022461 103.7255957 32.93022461 103.7255957 32.18554688 104.51367188 C28.6228756 108.09552308 28.6228756 108.09552308 25.9453125 108.28125 C23.07157765 106.61960529 21.01986389 104.46601189 18.72265625 102.078125 C17.38460937 100.69947266 17.38460937 100.69947266 16.01953125 99.29296875 C15.3440625 98.58269531 14.66859375 97.87242188 13.97265625 97.140625 C9.28820163 99.06763929 6.53459954 102.65889634 3.19140625 106.33984375 C0.97265625 108.140625 0.97265625 108.140625 -0.9453125 108.2421875 C-4.04733879 106.60096534 -6.38893204 104.29178527 -8.83984375 101.828125 C-9.61231445 101.09819336 -9.61231445 101.09819336 -10.40039062 100.35351562 C-13.98224183 96.79084435 -13.98224183 96.79084435 -14.16796875 94.11328125 C-12.50632404 91.2395464 -10.35273064 89.18783264 -7.96484375 86.890625 C-7.04574219 85.99859375 -6.12664063 85.1065625 -5.1796875 84.1875 C-4.46941406 83.51203125 -3.75914063 82.8365625 -3.02734375 82.140625 C-6.65734375 81.810625 -10.28734375 81.480625 -14.02734375 81.140625 C-14.35734375 77.510625 -14.68734375 73.880625 -15.02734375 70.140625 C-15.775 70.94628906 -16.52265625 71.75195312 -17.29296875 72.58203125 C-18.28708573 73.62304054 -19.28191471 74.66337024 -20.27734375 75.703125 C-20.76847656 76.23615234 -21.25960938 76.76917969 -21.765625 77.31835938 C-25.41343598 81.08776406 -25.41343598 81.08776406 -28.0234375 81.3125 C-31.02560635 79.5568457 -33.40498617 77.27564764 -35.83984375 74.828125 C-36.61231445 74.09819336 -36.61231445 74.09819336 -37.40039062 73.35351562 C-40.98224183 69.79084435 -40.98224183 69.79084435 -41.16796875 67.11328125 C-39.50632404 64.2395464 -37.35273064 62.18783264 -34.96484375 59.890625 C-34.04574219 58.99859375 -33.12664063 58.1065625 -32.1796875 57.1875 C-31.46941406 56.51203125 -30.75914063 55.8365625 -30.02734375 55.140625 C-31.95435804 50.45617038 -35.54561509 47.70256829 -39.2265625 44.359375 C-41.02734375 42.140625 -41.02734375 42.140625 -41.12890625 40.22265625 C-39.48768409 37.12062996 -37.17850402 34.77903671 -34.71484375 32.328125 C-34.22822266 31.81314453 -33.74160156 31.29816406 -33.24023438 30.76757812 C-29.6775631 27.18572692 -29.6775631 27.18572692 -27 27 C-24.12626515 28.66164471 -22.07455139 30.81523811 -19.77734375 33.203125 C-18.8853125 34.12222656 -17.99328125 35.04132812 -17.07421875 35.98828125 C-16.39875 36.69855469 -15.72328125 37.40882812 -15.02734375 38.140625 C-14.69734375 34.510625 -14.36734375 30.880625 -14.02734375 27.140625 C-10.39734375 26.810625 -6.76734375 26.480625 -3.02734375 26.140625 C-3.83300781 25.39296875 -4.63867188 24.6453125 -5.46875 23.875 C-6.50975929 22.88088302 -7.55008899 21.88605404 -8.58984375 20.890625 C-9.12287109 20.39949219 -9.65589844 19.90835937 -10.20507812 19.40234375 C-13.97448281 15.75453277 -13.97448281 15.75453277 -14.19921875 13.14453125 C-12.44356445 10.1423624 -10.16236639 7.76298258 -7.71484375 5.328125 C-7.22822266 4.81314453 -6.74160156 4.29816406 -6.24023438 3.76757812 C-2.6775631 0.18572692 -2.6775631 0.18572692 0 0 Z M9.37109375 17.51171875 C8.35809583 18.52871534 7.35049342 19.55110774 6.34765625 20.578125 C5.83203125 21.09439453 5.31640625 21.61066406 4.78515625 22.14257812 C2.15513033 24.28440352 2.15513033 24.28440352 0.97265625 27.140625 C8.89265625 27.140625 16.81265625 27.140625 24.97265625 27.140625 C19.69848712 20.89711687 19.69848712 20.89711687 13.97265625 15.140625 C11.63235595 14.91608791 11.63235595 14.91608791 9.37109375 17.51171875 Z M-17.53125 44.546875 C-18.55331185 45.575617 -19.57272339 46.60699707 -20.58984375 47.640625 C-21.10998047 48.16527344 -21.63011719 48.68992187 -22.16601562 49.23046875 C-23.45536066 50.53164263 -24.74163745 51.83585551 -26.02734375 53.140625 C-24.49297799 56.79627239 -22.27751953 59.12761123 -19.46484375 61.890625 C-18.65917969 62.68984375 -17.85351562 63.4890625 -17.0234375 64.3125 C-15.35555784 66.2531913 -15.35555784 66.2531913 -14.02734375 66.140625 C-14.02734375 58.220625 -14.02734375 50.300625 -14.02734375 42.140625 C-15.48595439 42.0251406 -15.48595439 42.0251406 -17.53125 44.546875 Z M9.37109375 44.546875 C8.35818083 45.57311572 7.35057498 46.60461505 6.34765625 47.640625 C5.83203125 48.16527344 5.31640625 48.68992187 4.78515625 49.23046875 C3.50980693 50.52943565 2.24064364 51.83447077 0.97265625 53.140625 C2.50909477 56.82132387 4.7541657 59.12837704 7.59765625 61.890625 C8.41492187 62.68984375 9.2321875 63.4890625 10.07421875 64.3125 C10.70070313 64.91578125 11.3271875 65.5190625 11.97265625 66.140625 C15.65335512 64.60418648 17.96040829 62.35911555 20.72265625 59.515625 C21.92148438 58.28972656 21.92148438 58.28972656 23.14453125 57.0390625 C23.7478125 56.41257812 24.35109375 55.78609375 24.97265625 55.140625 C23.4404694 51.51000833 21.25434185 49.1542477 18.47265625 46.390625 C17.67859375 45.59140625 16.88453125 44.7921875 16.06640625 43.96875 C12.8744206 41.18171776 12.49955407 41.65328408 9.37109375 44.546875 Z M39.97265625 42.140625 C39.97265625 50.060625 39.97265625 57.980625 39.97265625 66.140625 C44.20050458 62.516755 48.13132722 59.09835794 51.97265625 55.140625 C50.43829049 51.48497761 48.22283203 49.15363877 45.41015625 46.390625 C44.60449219 45.59140625 43.79882812 44.7921875 42.96875 43.96875 C41.30087034 42.0280587 41.30087034 42.0280587 39.97265625 42.140625 Z M0.97265625 81.140625 C4.59652625 85.36847333 8.01492331 89.29929597 11.97265625 93.140625 C15.62830364 91.60625924 17.95964248 89.39080078 20.72265625 86.578125 C21.521875 85.77246094 22.32109375 84.96679688 23.14453125 84.13671875 C25.08522255 82.46883909 25.08522255 82.46883909 24.97265625 81.140625 C17.05265625 81.140625 9.13265625 81.140625 0.97265625 81.140625 Z " fill="#E3E3E3" transform="translate(51.02734375,9.859375)"/>
<path d="M0 0 C2.87373485 1.66164471 4.92544861 3.81523811 7.22265625 6.203125 C8.1146875 7.12222656 9.00671875 8.04132813 9.92578125 8.98828125 C10.60125 9.69855469 11.27671875 10.40882812 11.97265625 11.140625 C16.65711087 9.21361071 19.41071296 5.62235366 22.75390625 1.94140625 C24.97265625 0.140625 24.97265625 0.140625 26.890625 0.0390625 C29.99265129 1.68028466 32.33424454 3.98946473 34.78515625 6.453125 C35.30013672 6.93974609 35.81511719 7.42636719 36.34570312 7.92773438 C39.92115981 11.48404537 39.92115981 11.48404537 40.12890625 14.1328125 C38.39283656 17.14747406 36.10743832 19.51850675 33.66015625 21.953125 C33.17353516 22.46810547 32.68691406 22.98308594 32.18554688 23.51367188 C28.6228756 27.09552308 28.6228756 27.09552308 25.9453125 27.28125 C23.07157765 25.61960529 21.01986389 23.46601189 18.72265625 21.078125 C17.830625 20.15902344 16.93859375 19.23992187 16.01953125 18.29296875 C15.3440625 17.58269531 14.66859375 16.87242188 13.97265625 16.140625 C9.28820163 18.06763929 6.53459954 21.65889634 3.19140625 25.33984375 C0.97265625 27.140625 0.97265625 27.140625 -0.9453125 27.2421875 C-4.04733879 25.60096534 -6.38893204 23.29178527 -8.83984375 20.828125 C-9.35482422 20.34150391 -9.86980469 19.85488281 -10.40039062 19.35351562 C-13.97584731 15.79720463 -13.97584731 15.79720463 -14.18359375 13.1484375 C-12.44752406 10.13377594 -10.16212582 7.76274325 -7.71484375 5.328125 C-7.22822266 4.81314453 -6.74160156 4.29816406 -6.24023438 3.76757812 C-2.6775631 0.18572692 -2.6775631 0.18572692 0 0 Z " fill="#2E8C81" transform="translate(51.02734375,90.859375)"/>
<path d="M0 0 C3.01466156 1.73606969 5.38569425 4.02146793 7.8203125 6.46875 C8.33529297 6.95537109 8.85027344 7.44199219 9.38085938 7.94335938 C12.96271058 11.50603065 12.96271058 11.50603065 13.1484375 14.18359375 C11.48679279 17.0573286 9.33319939 19.10904236 6.9453125 21.40625 C6.02621094 22.29828125 5.10710937 23.1903125 4.16015625 24.109375 C3.44988281 24.78484375 2.73960938 25.4603125 2.0078125 26.15625 C3.93482679 30.84070462 7.52608384 33.59430671 11.20703125 36.9375 C13.0078125 39.15625 13.0078125 39.15625 13.109375 41.07421875 C11.46815284 44.17624504 9.15897277 46.51783829 6.6953125 48.96875 C6.20869141 49.48373047 5.72207031 49.99871094 5.22070312 50.52929688 C1.66439213 54.10475356 1.66439213 54.10475356 -0.984375 54.3125 C-3.99903656 52.57643031 -6.37006925 50.29103207 -8.8046875 47.84375 C-9.31966797 47.35712891 -9.83464844 46.87050781 -10.36523438 46.36914062 C-13.94708558 42.80646935 -13.94708558 42.80646935 -14.1328125 40.12890625 C-12.47116779 37.2551714 -10.31757439 35.20345764 -7.9296875 32.90625 C-7.01058594 32.01421875 -6.09148437 31.1221875 -5.14453125 30.203125 C-4.43425781 29.52765625 -3.72398438 28.8521875 -2.9921875 28.15625 C-4.91920179 23.47179538 -8.51045884 20.71819329 -12.19140625 17.375 C-13.9921875 15.15625 -13.9921875 15.15625 -14.09375 13.23828125 C-12.45252784 10.13625496 -10.14334777 7.79466171 -7.6796875 5.34375 C-7.19306641 4.82876953 -6.70644531 4.31378906 -6.20507812 3.78320312 C-2.64876713 0.20774644 -2.64876713 0.20774644 0 0 Z " fill="#2E8C81" transform="translate(104.9921875,36.84375)"/>
<path d="M0 0 C3.01466156 1.73606969 5.38569425 4.02146793 7.8203125 6.46875 C8.33529297 6.95537109 8.85027344 7.44199219 9.38085938 7.94335938 C12.96271058 11.50603065 12.96271058 11.50603065 13.1484375 14.18359375 C11.48679279 17.0573286 9.33319939 19.10904236 6.9453125 21.40625 C6.02621094 22.29828125 5.10710938 23.1903125 4.16015625 24.109375 C3.44988281 24.78484375 2.73960938 25.4603125 2.0078125 26.15625 C3.93482679 30.84070462 7.52608384 33.59430671 11.20703125 36.9375 C13.0078125 39.15625 13.0078125 39.15625 13.109375 41.07421875 C11.46815284 44.17624504 9.15897277 46.51783829 6.6953125 48.96875 C6.20869141 49.48373047 5.72207031 49.99871094 5.22070312 50.52929688 C1.66439213 54.10475356 1.66439213 54.10475356 -0.984375 54.3125 C-3.99903656 52.57643031 -6.37006925 50.29103207 -8.8046875 47.84375 C-9.31966797 47.35712891 -9.83464844 46.87050781 -10.36523438 46.36914062 C-13.94708558 42.80646935 -13.94708558 42.80646935 -14.1328125 40.12890625 C-12.47116779 37.2551714 -10.31757439 35.20345764 -7.9296875 32.90625 C-7.01058594 32.01421875 -6.09148438 31.1221875 -5.14453125 30.203125 C-4.43425781 29.52765625 -3.72398438 28.8521875 -2.9921875 28.15625 C-4.91920179 23.47179538 -8.51045884 20.71819329 -12.19140625 17.375 C-13.9921875 15.15625 -13.9921875 15.15625 -14.09375 13.23828125 C-12.45252784 10.13625496 -10.14334777 7.79466171 -7.6796875 5.34375 C-7.19306641 4.82876953 -6.70644531 4.31378906 -6.20507812 3.78320312 C-2.64876713 0.20774644 -2.64876713 0.20774644 0 0 Z " fill="#2E8C81" transform="translate(23.9921875,36.84375)"/>
<path d="M0 0 C2.87373485 1.66164471 4.92544861 3.81523811 7.22265625 6.203125 C8.1146875 7.12222656 9.00671875 8.04132812 9.92578125 8.98828125 C10.60125 9.69855469 11.27671875 10.40882812 11.97265625 11.140625 C16.65711087 9.21361071 19.41071296 5.62235366 22.75390625 1.94140625 C24.97265625 0.140625 24.97265625 0.140625 26.890625 0.0390625 C29.99265129 1.68028466 32.33424454 3.98946473 34.78515625 6.453125 C35.30013672 6.93974609 35.81511719 7.42636719 36.34570312 7.92773438 C39.92115981 11.48404537 39.92115981 11.48404537 40.12890625 14.1328125 C38.39283656 17.14747406 36.10743832 19.51850675 33.66015625 21.953125 C33.17353516 22.46810547 32.68691406 22.98308594 32.18554688 23.51367188 C28.6228756 27.09552308 28.6228756 27.09552308 25.9453125 27.28125 C23.07157765 25.61960529 21.01986389 23.46601189 18.72265625 21.078125 C17.830625 20.15902344 16.93859375 19.23992188 16.01953125 18.29296875 C15.3440625 17.58269531 14.66859375 16.87242188 13.97265625 16.140625 C9.28820163 18.06763929 6.53459954 21.65889634 3.19140625 25.33984375 C0.97265625 27.140625 0.97265625 27.140625 -0.9453125 27.2421875 C-4.04733879 25.60096534 -6.38893204 23.29178527 -8.83984375 20.828125 C-9.35482422 20.34150391 -9.86980469 19.85488281 -10.40039062 19.35351562 C-13.97584731 15.79720463 -13.97584731 15.79720463 -14.18359375 13.1484375 C-12.44752406 10.13377594 -10.16212582 7.76274325 -7.71484375 5.328125 C-7.22822266 4.81314453 -6.74160156 4.29816406 -6.24023438 3.76757812 C-2.6775631 0.18572692 -2.6775631 0.18572692 0 0 Z " fill="#2E8C81" transform="translate(51.02734375,9.859375)"/>
<path d="M0 0 C1.9375 1.0625 1.9375 1.0625 3 3 C4.52140505 9.73765093 4.52140505 9.73765093 2.8125 13.875 C0.82641659 16.20351159 -0.04853003 17.20230541 -3 18 C-7.3482291 18.15241215 -10.13693543 17.73360489 -13.5 14.875 C-15.40479372 11.22414536 -15.5814173 9.06992108 -15 5 C-10.97940503 -1.37749548 -6.83617717 -1.55562278 0 0 Z " fill="#58C6B9" transform="translate(110,96)"/>
<path d="M0 0 C1.9375 1.0625 1.9375 1.0625 3 3 C4.52140505 9.73765093 4.52140505 9.73765093 2.8125 13.875 C0.82641659 16.20351159 -0.04853003 17.20230541 -3 18 C-7.3482291 18.15241215 -10.13693543 17.73360489 -13.5 14.875 C-15.40479372 11.22414536 -15.5814173 9.06992108 -15 5 C-10.97940503 -1.37749548 -6.83617717 -1.55562278 0 0 Z " fill="#58C6B9" transform="translate(29,96)"/>
<path d="M0 0 C1.9375 1.0625 1.9375 1.0625 3 3 C4.52140505 9.73765093 4.52140505 9.73765093 2.8125 13.875 C0.82641659 16.20351159 -0.04853003 17.20230541 -3 18 C-7.3482291 18.15241215 -10.13693543 17.73360489 -13.5 14.875 C-15.40479372 11.22414536 -15.5814173 9.06992108 -15 5 C-10.97940503 -1.37749548 -6.83617717 -1.55562278 0 0 Z " fill="#58C6B9" transform="translate(110,15)"/>
<path d="M0 0 C1.9375 1.0625 1.9375 1.0625 3 3 C4.52140505 9.73765093 4.52140505 9.73765093 2.8125 13.875 C0.82641659 16.20351159 -0.04853003 17.20230541 -3 18 C-7.3482291 18.15241215 -10.13693543 17.73360489 -13.5 14.875 C-15.40479372 11.22414536 -15.5814173 9.06992108 -15 5 C-10.97940503 -1.37749548 -6.83617717 -1.55562278 0 0 Z " fill="#58C6B9" transform="translate(29,15)"/>
</svg>
