<svg width="128" height="128" viewBox="0 0 128 128" fill="none" xmlns="http://www.w3.org/2000/svg">
<path fill-rule="evenodd" clip-rule="evenodd" d="M104 71.2334H24V108.257C24 110.023 25.158 111.581 26.85 112.089C34.888 114.499 57.492 121.281 62.85 122.889C63.6 123.113 64.4 123.113 65.15 122.889C70.508 121.281 93.112 114.499 101.15 112.089C102.842 111.581 104 110.023 104 108.257C104 98.9854 104 71.2334 104 71.2334Z" fill="#CADCF0"/>
<path fill-rule="evenodd" clip-rule="evenodd" d="M104 71.2334H64.0001C64.0001 71.2334 63.6121 123.057 64.0001 123.057C64.3881 123.057 64.7741 123.001 65.1501 122.889C70.5081 121.281 93.1121 114.499 101.15 112.089C102.842 111.581 104 110.023 104 108.257C104 98.9854 104 71.2334 104 71.2334Z" fill="#A4BBDB"/>
<path fill-rule="evenodd" clip-rule="evenodd" d="M64 84.2114L24 71.2334C24 71.2334 16.986 81.6334 13.85 86.2814C13.498 86.8034 13.412 87.4574 13.616 88.0514C13.822 88.6454 14.292 89.1074 14.89 89.3034C22.488 91.7714 44.98 99.0794 50.88 100.995C51.726 101.271 52.654 100.953 53.154 100.215C55.836 96.2574 64 84.2114 64 84.2114Z" fill="#E9F3FC"/>
<path fill-rule="evenodd" clip-rule="evenodd" d="M104 71.2334L64 84.2114C64 84.2114 72.164 96.2574 74.846 100.215C75.346 100.953 76.274 101.271 77.12 100.995C83.02 99.0794 105.512 91.7714 113.11 89.3034C113.708 89.1074 114.178 88.6454 114.384 88.0514C114.588 87.4574 114.502 86.8034 114.15 86.2814C111.014 81.6334 104 71.2334 104 71.2334Z" fill="#E9F3FC"/>
<path fill-rule="evenodd" clip-rule="evenodd" d="M54.318 43.9712C53.818 43.2372 52.892 42.9192 52.046 43.1952C46.15 45.1092 23.652 52.4192 16.054 54.8892C15.456 55.0832 14.984 55.5452 14.78 56.1392C14.576 56.7332 14.662 57.3892 15.014 57.9092C17.902 62.1932 24 71.2332 24 71.2332L64 58.2112C64 58.2112 56.816 47.6452 54.318 43.9712Z" fill="#CADCF0"/>
<path fill-rule="evenodd" clip-rule="evenodd" d="M112.986 57.9092C113.338 57.3892 113.424 56.7332 113.22 56.1392C113.016 55.5452 112.544 55.0832 111.946 54.8892C104.348 52.4192 81.85 45.1092 75.954 43.1952C75.108 42.9192 74.182 43.2372 73.682 43.9712C71.184 47.6452 64 58.2112 64 58.2112L104 71.2332C104 71.2332 110.098 62.1932 112.986 57.9092Z" fill="#E9F3FC"/>
<path fill-rule="evenodd" clip-rule="evenodd" d="M104 71.2339L64 58.2119L24 71.2339L64 84.2119L104 71.2339Z" fill="#CADCF0"/>
<path fill-rule="evenodd" clip-rule="evenodd" d="M64 84.2119V58.2119L24 71.2339L64 84.2119Z" fill="#A4BBDB"/>
<path fill-rule="evenodd" clip-rule="evenodd" d="M55.9641 63.9562C55.1321 63.4122 54.3821 62.8302 53.7161 62.2202C52.9041 61.4742 51.6381 61.5282 50.8901 62.3422C50.1441 63.1542 50.1981 64.4202 51.0121 65.1662C51.8301 65.9182 52.7521 66.6342 53.7761 67.3042C54.7001 67.9082 55.9401 67.6482 56.5441 66.7242C57.1481 65.8002 56.8881 64.5602 55.9641 63.9562Z" fill="#347BFA"/>
<path fill-rule="evenodd" clip-rule="evenodd" d="M49.7321 57.8123C49.1381 57.0063 48.6361 56.1963 48.2241 55.3863C47.7241 54.4023 46.5181 54.0103 45.5341 54.5103C44.5501 55.0103 44.1581 56.2163 44.6581 57.2003C45.1661 58.1963 45.7821 59.1943 46.5121 60.1843C47.1661 61.0723 48.4181 61.2623 49.3081 60.6083C50.1961 59.9523 50.3861 58.7003 49.7321 57.8123Z" fill="#347BFA"/>
<path fill-rule="evenodd" clip-rule="evenodd" d="M46.8081 49.6496C46.8281 48.8436 46.9461 48.0616 47.1621 47.3116C47.4661 46.2516 46.8521 45.1416 45.7901 44.8376C44.7301 44.5336 43.6201 45.1475 43.3161 46.2095C43.0101 47.2815 42.8381 48.3995 42.8081 49.5495C42.7821 50.6535 43.6541 51.5715 44.7581 51.5975C45.8621 51.6255 46.7801 50.7536 46.8081 49.6496Z" fill="#347BFA"/>
<path fill-rule="evenodd" clip-rule="evenodd" d="M49.8841 42.9705C50.3981 42.4945 50.9741 42.0545 51.6041 41.6565C52.5381 41.0665 52.8181 39.8305 52.2301 38.8985C51.6401 37.9645 50.4041 37.6845 49.4701 38.2725C48.6241 38.8065 47.8561 39.3965 47.1661 40.0365C46.3561 40.7865 46.3081 42.0525 47.0581 42.8625C47.8081 43.6725 49.0741 43.7205 49.8841 42.9705Z" fill="#347BFA"/>
<path fill-rule="evenodd" clip-rule="evenodd" d="M57.3221 39.5197C58.3281 39.3337 59.3941 39.2137 60.5181 39.1677C61.6221 39.1197 62.4781 38.1857 62.4321 37.0837C62.3861 35.9817 61.4521 35.1237 60.3481 35.1697C59.0281 35.2257 57.7761 35.3677 56.5941 35.5857C55.5101 35.7877 54.7901 36.8317 54.9921 37.9157C55.1921 39.0017 56.2361 39.7197 57.3221 39.5197Z" fill="#347BFA"/>
<path fill-rule="evenodd" clip-rule="evenodd" d="M67.7461 39.4022C69.4521 39.4222 71.0401 39.3622 72.5141 39.2322C73.6141 39.1342 74.4281 38.1622 74.3301 37.0622C74.2321 35.9642 73.2601 35.1502 72.1601 35.2482C70.8101 35.3662 69.3561 35.4222 67.7921 35.4022C66.6881 35.3902 65.7821 36.2762 65.7701 37.3782C65.7561 38.4822 66.6421 39.3902 67.7461 39.4022Z" fill="#347BFA"/>
<path fill-rule="evenodd" clip-rule="evenodd" d="M79.0881 38.0062C81.0681 37.4002 82.7401 36.6242 84.1401 35.7342C85.0701 35.1402 85.3461 33.9042 84.7521 32.9722C84.1601 32.0422 82.9221 31.7662 81.9901 32.3602C80.8641 33.0762 79.5141 33.6922 77.9181 34.1802C76.8641 34.5042 76.2681 35.6222 76.5921 36.6782C76.9141 37.7342 78.0341 38.3282 79.0881 38.0062Z" fill="#347BFA"/>
<path fill-rule="evenodd" clip-rule="evenodd" d="M89.2681 30.1359C90.2121 28.1839 90.5741 26.1199 90.4821 24.1299C90.4301 23.0259 89.4921 22.1739 88.3901 22.2259C87.2881 22.2779 86.4341 23.2139 86.4861 24.3159C86.5501 25.6679 86.3061 27.0699 85.6661 28.3959C85.1861 29.3899 85.6021 30.5879 86.5961 31.0679C87.5901 31.5479 88.7881 31.1299 89.2681 30.1359Z" fill="#347BFA"/>
<path fill-rule="evenodd" clip-rule="evenodd" d="M87.994 17.058C86.536 15.088 84.558 13.716 82.402 13.274C81.32 13.054 80.262 13.75 80.04 14.832C79.82 15.914 80.518 16.972 81.598 17.194C82.842 17.448 83.938 18.302 84.78 19.44C85.438 20.326 86.692 20.512 87.578 19.856C88.466 19.198 88.652 17.944 87.994 17.058Z" fill="#347BFA"/>
<path fill-rule="evenodd" clip-rule="evenodd" d="M61.866 13.6616C64.03 1.4076 82.784 2.1996 71.866 13.6616H61.866Z" fill="#CADCF0"/>
<path fill-rule="evenodd" clip-rule="evenodd" d="M61.866 16.7656C64.03 29.0176 82.784 28.2276 71.866 16.7656H61.866Z" fill="#CADCF0"/>
<path fill-rule="evenodd" clip-rule="evenodd" d="M61.686 17.2334H75.078C76.182 17.2334 77.078 16.3374 77.078 15.2334C77.078 14.1294 76.182 13.2334 75.078 13.2334H61.686C60.584 13.2334 59.686 14.1294 59.686 15.2334C59.686 16.3374 60.584 17.2334 61.686 17.2334Z" fill="#347BFA"/>
</svg>
