<svg width="25" height="24" viewBox="0 0 25 24" fill="none" xmlns="http://www.w3.org/2000/svg">
<path fill-rule="evenodd" clip-rule="evenodd" d="M11.9465 4.38462C7.73944 4.38462 4.33115 7.79291 4.33115 12C4.33115 13.2688 4.64416 14.4694 5.1942 15.5119C5.37261 15.8502 5.24309 16.269 4.90491 16.4473C4.56674 16.6257 4.14796 16.4962 3.96955 16.1581C3.3161 14.9194 2.94653 13.4974 2.94653 12C2.94653 7.02821 6.97475 3 11.9465 3C16.9183 3 20.9465 7.02821 20.9465 12C20.9465 13.5057 20.5773 14.9375 19.9136 16.1868C19.7342 16.5244 19.3151 16.6528 18.9774 16.4733C18.6398 16.294 18.5115 15.8748 18.6908 15.5371C19.2486 14.4872 19.5619 13.2785 19.5619 12C19.5619 7.79291 16.1537 4.38462 11.9465 4.38462Z" fill="#3D4C5C"/>
<path fill-rule="evenodd" clip-rule="evenodd" d="M11.9191 8.10214C10.6207 8.10214 9.56851 9.15402 9.56851 10.4518C9.56851 11.7496 10.6207 12.8015 11.9191 12.8015C13.2163 12.8015 14.2687 11.7497 14.2687 10.4518C14.2687 9.15389 13.2163 8.10214 11.9191 8.10214ZM8.1839 10.4518C8.1839 8.38879 9.85659 6.71753 11.9191 6.71753C13.9808 6.71753 15.6533 8.38892 15.6533 10.4518C15.6533 12.5147 13.9808 14.1861 11.9191 14.1861C9.85659 14.1861 8.1839 12.5148 8.1839 10.4518Z" fill="#3D4C5C"/>
<path fill-rule="evenodd" clip-rule="evenodd" d="M7.96995 18.4902C9.12102 19.2016 10.4856 19.6146 11.9453 19.6146C13.3882 19.6146 14.7377 19.2091 15.8875 18.5105C15.7533 18.0672 15.4795 17.626 15.0197 17.264C14.4162 16.789 13.4389 16.4098 11.9183 16.4098C10.4168 16.4098 9.44476 16.7862 8.84109 17.2585C8.38215 17.6176 8.10692 18.0541 7.96995 18.4902ZM7.98788 16.168C8.89081 15.4616 10.1865 15.0251 11.9183 15.0251C13.6669 15.0251 14.9707 15.4633 15.8762 16.176C16.7839 16.8906 17.2373 17.8403 17.3477 18.7507C17.3787 19.0059 17.2656 19.2573 17.0541 19.4035C15.6051 20.4051 13.8431 20.9992 11.9453 20.9992C10.029 20.9992 8.2469 20.3959 6.79535 19.3729C6.5855 19.2251 6.47471 18.9732 6.50752 18.7186C6.62376 17.8163 7.0833 16.8758 7.98788 16.168Z" fill="#3D4C5C"/>
</svg>
