<svg width="24" height="24" viewBox="0 0 24 24" fill="none" xmlns="http://www.w3.org/2000/svg">
<path fill-rule="evenodd" clip-rule="evenodd" d="M11.5221 9.6347C10.2435 9.6347 9.2066 10.6709 9.2066 11.9502C9.2066 13.2287 10.2436 14.2657 11.5221 14.2657C12.8006 14.2657 13.8376 13.2287 13.8376 11.9502C13.8376 10.6709 12.8008 9.6347 11.5221 9.6347ZM7.7666 11.9502C7.7666 9.87528 9.44846 8.1947 11.5221 8.1947C13.5958 8.1947 15.2776 9.87528 15.2776 11.9502C15.2776 14.024 13.5959 15.7057 11.5221 15.7057C9.44832 15.7057 7.7666 14.024 7.7666 11.9502Z" fill="black"/>
<path fill-rule="evenodd" clip-rule="evenodd" d="M4.77667 6.71454C6.4993 5.25815 8.88088 4.22021 11.522 4.22021C14.1627 4.22021 16.5443 5.25733 18.267 6.71338C19.9711 8.15358 21.124 10.0897 21.124 11.9501C21.124 13.8106 19.9711 15.7467 18.267 17.1868C16.5443 18.643 14.1627 19.6801 11.522 19.6801C8.88088 19.6801 6.4993 18.6421 4.77667 17.1857C3.07289 15.7452 1.92017 13.8092 1.92017 11.9501C1.92017 10.0911 3.07289 8.15502 4.77667 6.71454ZM5.70639 7.8142C4.19562 9.09148 3.36017 10.6604 3.36017 11.9501C3.36017 13.2399 4.19562 14.8087 5.70639 16.0861C7.19832 17.3475 9.2577 18.2401 11.522 18.2401C13.7861 18.2401 15.8455 17.348 17.3375 16.0871C18.8483 14.8102 19.684 13.2413 19.684 11.9501C19.684 10.6589 18.8483 9.09004 17.3375 7.8132C15.8455 6.55221 13.7861 5.66021 11.522 5.66021C9.2577 5.66021 7.19832 6.55284 5.70639 7.8142Z" fill="black"/>
</svg>
