<svg width="20" height="20" viewBox="0 0 20 20" fill="none" xmlns="http://www.w3.org/2000/svg">
<path fill-rule="evenodd" clip-rule="evenodd" d="M3.84319 5.57551C3.59961 6.16358 3.59961 6.90908 3.59961 8.4001V11.6001C3.59961 13.0911 3.59961 13.8366 3.84319 14.4247C4.16798 15.2088 4.79093 15.8317 5.57502 16.1565C6.16309 16.4001 6.9086 16.4001 8.39961 16.4001H11.5996C13.0906 16.4001 13.8361 16.4001 14.4242 16.1565C15.2083 15.8317 15.8312 15.2088 16.156 14.4247C16.3996 13.8366 16.3996 13.0911 16.3996 11.6001V8.4001C16.3996 6.90908 16.3996 6.16358 16.156 5.57551C15.8312 4.79142 15.2083 4.16846 14.4242 3.84368C13.8361 3.6001 13.0906 3.6001 11.5996 3.6001H8.39961C6.9086 3.6001 6.16309 3.6001 5.57502 3.84368C4.79093 4.16846 4.16798 4.79142 3.84319 5.57551ZM5.09965 6.09595C4.95959 6.43409 4.95959 6.86276 4.95959 7.72009V12.2801C4.95959 13.1374 4.95959 13.5661 5.09965 13.9042C5.2864 14.3551 5.6446 14.7133 6.09545 14.9C6.43359 15.0401 6.86225 15.0401 7.71958 15.0401H12.2796C13.1369 15.0401 13.5656 15.0401 13.9037 14.9C14.3546 14.7133 14.7128 14.3551 14.8995 13.9042C15.0396 13.5661 15.0396 13.1374 15.0396 12.2801V7.72009C15.0396 6.86276 15.0396 6.43409 14.8995 6.09595C14.7128 5.6451 14.3546 5.2869 13.9037 5.10015C13.5656 4.96009 13.1369 4.96009 12.2796 4.96009H7.71959C6.86225 4.96009 6.43359 4.96009 6.09545 5.10015C5.6446 5.2869 5.2864 5.6451 5.09965 6.09595Z" fill="#3D4C5C"/>
</svg>
