<svg width="24" height="24" viewBox="0 0 24 24" fill="none" xmlns="http://www.w3.org/2000/svg">
<path d="M7.07028 20.4991C5.55126 20.4991 4.63334 19.5135 4.56836 18.1407C4.56836 16.5862 5.50433 15.2498 7.11944 14.6734C8.40767 14.2137 10.1279 15.2838 12.15 15.2694C14.1693 15.2886 15.8888 14.22 17.1772 14.6772C18.8015 15.2536 19.7406 16.5884 19.7315 18.1407C19.6584 19.5135 18.7459 20.4991 17.2296 20.4991H7.07028Z" stroke="#657084" stroke-width="1.5" stroke-miterlimit="10"/>
<path d="M12.1579 11.6283C14.4025 11.6283 16.2221 9.80875 16.2221 7.56417C16.2221 5.31959 14.4025 3.5 12.1579 3.5C9.91334 3.5 8.09375 5.31959 8.09375 7.56417C8.09375 9.80875 9.91334 11.6283 12.1579 11.6283Z" stroke="#657084" stroke-width="1.5" stroke-miterlimit="10"/>
</svg>
